{
	"asset":{
		"generator":"Khronos glTF Blender I/O v5.0.21",
		"version":"2.0"
	},
	"extensionsUsed":[
		"KHR_materials_emissive_strength"
	],
	"scene":0,
	"scenes":[
		{
			"name":"Scene",
			"nodes":[
				0,
				1,
				2,
				3,
				4,
				5,
				6,
				7,
				8,
				9
			]
		}
	],
	"nodes":[
		{
			"mesh":0,
			"name":"MENS",
			"rotation":[
				0.7071068286895752,
				0,
				0,
				0.7071068286895752
			]
		},
		{
			"mesh":1,
			"name":"BOY",
			"rotation":[
				0.7071068286895752,
				0,
				0,
				0.7071068286895752
			]
		},
		{
			"mesh":2,
			"name":"GIRLS",
			"rotation":[
				0.7071068286895752,
				0,
				0,
				0.7071068286895752
			]
		},
		{
			"mesh":3,
			"name":"BOY.001",
			"rotation":[
				0.7071068286895752,
				0,
				0,
				0.7071068286895752
			],
			"scale":[
				0.9218671917915344,
				0.3333333432674408,
				0.9218671917915344
			],
			"translation":[
				0.07199911773204803,
				0.01901863142848015,
				0.16257238388061523
			]
		},
		{
			"mesh":4,
			"name":"GIRLS.001",
			"rotation":[
				0.7071068286895752,
				0,
				0,
				0.7071068286895752
			],
			"scale":[
				0.9464427828788757,
				0.9464427828788757,
				0.9464427828788757
			],
			"translation":[
				0.06520675122737885,
				0.01630168780684471,
				0.11737217754125595
			]
		},
		{
			"mesh":5,
			"name":"MENS.001",
			"rotation":[
				0.7071068286895752,
				0,
				0,
				0.7071068286895752
			],
			"scale":[
				0.9660964012145996,
				0.9660964012145996,
				0.9660964012145996
			],
			"translation":[
				0.022641237825155258,
				0.009056493639945984,
				0.09509319067001343
			]
		},
		{
			"mesh":6,
			"name":"WOMENS",
			"rotation":[
				0.7071068286895752,
				0,
				0,
				0.7071068286895752
			]
		},
		{
			"mesh":7,
			"name":"NEWBORN",
			"rotation":[
				0.7071068286895752,
				0,
				0,
				0.7071068286895752
			]
		},
		{
			"mesh":8,
			"name":"WOMENS.001",
			"rotation":[
				0.7071068286895752,
				0,
				0,
				0.7071068286895752
			],
			"scale":[
				0.946399986743927,
				0.946399986743927,
				0.946399986743927
			],
			"translation":[
				0.06520000100135803,
				0.016300000250339508,
				0.11739999800920486
			]
		},
		{
			"mesh":9,
			"name":"NEWBORN.001",
			"rotation":[
				0.7071068286895752,
				0,
				0,
				0.7071068286895752
			],
			"scale":[
				0.946399986743927,
				0.946399986743927,
				0.946399986743927
			],
			"translation":[
				0.06520000100135803,
				0.016300000250339508,
				0.11739999800920486
			]
		}
	],
	"materials":[
		{
			"doubleSided":true,
			"name":"Polished Oak Wood",
			"normalTexture":{
				"index":0,
				"texCoord":1
			},
			"pbrMetallicRoughness":{
				"baseColorTexture":{
					"index":1,
					"texCoord":1
				},
				"metallicFactor":0,
				"metallicRoughnessTexture":{
					"index":2,
					"texCoord":1
				}
			}
		},
		{
			"doubleSided":true,
			"emissiveFactor":[
				1,
				1,
				1
			],
			"emissiveTexture":{
				"index":3,
				"texCoord":1
			},
			"extensions":{
				"KHR_materials_emissive_strength":{
					"emissiveStrength":10
				}
			},
			"name":"AR3DMat PBR Light Warm White",
			"normalTexture":{
				"index":4,
				"texCoord":1
			},
			"pbrMetallicRoughness":{
				"baseColorTexture":{
					"index":5,
					"texCoord":1
				},
				"metallicFactor":0,
				"metallicRoughnessTexture":{
					"index":6,
					"texCoord":1
				}
			}
		},
		{
			"doubleSided":true,
			"emissiveFactor":[
				1,
				1,
				1
			],
			"emissiveTexture":{
				"index":3
			},
			"extensions":{
				"KHR_materials_emissive_strength":{
					"emissiveStrength":10
				}
			},
			"name":"AR3DMat PBR Light Warm White",
			"normalTexture":{
				"index":4
			},
			"pbrMetallicRoughness":{
				"baseColorTexture":{
					"index":5
				},
				"metallicFactor":0,
				"metallicRoughnessTexture":{
					"index":6
				}
			}
		},
		{
			"doubleSided":true,
			"name":"Polished Oak Wood",
			"normalTexture":{
				"index":0
			},
			"pbrMetallicRoughness":{
				"baseColorTexture":{
					"index":1
				},
				"metallicFactor":0,
				"metallicRoughnessTexture":{
					"index":2
				}
			}
		}
	],
	"meshes":[
		{
			"name":"MENS",
			"primitives":[
				{
					"attributes":{
						"POSITION":0,
						"NORMAL":1,
						"TEXCOORD_0":2,
						"TEXCOORD_1":3
					},
					"indices":4,
					"material":0
				}
			]
		},
		{
			"name":"MENS.002",
			"primitives":[
				{
					"attributes":{
						"POSITION":5,
						"NORMAL":6,
						"TEXCOORD_0":7,
						"TEXCOORD_1":8
					},
					"indices":9,
					"material":0
				}
			]
		},
		{
			"name":"MENS.003",
			"primitives":[
				{
					"attributes":{
						"POSITION":10,
						"NORMAL":11,
						"TEXCOORD_0":12,
						"TEXCOORD_1":13
					},
					"indices":14,
					"material":0
				}
			]
		},
		{
			"name":"MENS.001",
			"primitives":[
				{
					"attributes":{
						"POSITION":15,
						"NORMAL":16,
						"TEXCOORD_0":17,
						"TEXCOORD_1":18
					},
					"indices":9,
					"material":1
				}
			]
		},
		{
			"name":"MENS.004",
			"primitives":[
				{
					"attributes":{
						"POSITION":19,
						"NORMAL":20,
						"TEXCOORD_0":21,
						"TEXCOORD_1":22
					},
					"indices":14,
					"material":1
				}
			]
		},
		{
			"name":"MENS.005",
			"primitives":[
				{
					"attributes":{
						"POSITION":23,
						"NORMAL":24,
						"TEXCOORD_0":25
					},
					"indices":4,
					"material":2
				}
			]
		},
		{
			"name":"MENS.006",
			"primitives":[
				{
					"attributes":{
						"POSITION":26,
						"NORMAL":27,
						"TEXCOORD_0":28
					},
					"indices":29,
					"material":3
				}
			]
		},
		{
			"name":"MENS.007",
			"primitives":[
				{
					"attributes":{
						"POSITION":30,
						"NORMAL":31,
						"TEXCOORD_0":32
					},
					"indices":33,
					"material":3
				}
			]
		},
		{
			"name":"MENS.008",
			"primitives":[
				{
					"attributes":{
						"POSITION":34,
						"NORMAL":35,
						"TEXCOORD_0":36
					},
					"indices":29,
					"material":2
				}
			]
		},
		{
			"name":"MENS.009",
			"primitives":[
				{
					"attributes":{
						"POSITION":37,
						"NORMAL":38,
						"TEXCOORD_0":39
					},
					"indices":33,
					"material":2
				}
			]
		}
	],
	"textures":[
		{
			"sampler":0,
			"source":0
		},
		{
			"sampler":0,
			"source":1
		},
		{
			"sampler":0,
			"source":2
		},
		{
			"sampler":0,
			"source":3
		},
		{
			"sampler":0,
			"source":4
		},
		{
			"sampler":0,
			"source":5
		},
		{
			"sampler":0,
			"source":6
		}
	],
	"images":[
		{
			"mimeType":"image/jpeg",
			"name":"Wood_Normal 2",
			"uri":"../textures/Wood_Normal%202.jpg"
		},
		{
			"mimeType":"image/jpeg",
			"name":"Wood_Diffuse2",
			"uri":"../textures/Wood_Diffuse2.jpg"
		},
		{
			"mimeType":"image/png",
			"name":"Wood_Roughness2",
			"uri":"../textures/Wood_Roughness2.png"
		},
		{
			"mimeType":"image/jpeg",
			"name":"LightWW_Emission",
			"uri":"../textures/LightWW_Emission.jpg"
		},
		{
			"mimeType":"image/jpeg",
			"name":"LightWW_Normal",
			"uri":"../textures/LightWW_Normal.jpg"
		},
		{
			"mimeType":"image/jpeg",
			"name":"LightWW_BaseColor",
			"uri":"../textures/LightWW_BaseColor.jpg"
		},
		{
			"mimeType":"image/png",
			"name":"LightWW_Roughness",
			"uri":"../textures/LightWW_Roughness.png"
		}
	],
	"accessors":[
		{
			"bufferView":0,
			"componentType":5126,
			"count":3624,
			"max":[
				2.2236125469207764,
				0.07620000094175339,
				0.011628714390099049
			],
			"min":[
				0.022751832380890846,
				0,
				-0.6719374656677246
			],
			"type":"VEC3"
		},
		{
			"bufferView":1,
			"componentType":5126,
			"count":3624,
			"type":"VEC3"
		},
		{
			"bufferView":2,
			"componentType":5126,
			"count":3624,
			"type":"VEC2"
		},
		{
			"bufferView":3,
			"componentType":5126,
			"count":3624,
			"type":"VEC2"
		},
		{
			"bufferView":4,
			"componentType":5123,
			"count":7140,
			"type":"SCALAR"
		},
		{
			"bufferView":5,
			"componentType":5126,
			"count":7076,
			"max":[
				2.2236125469207764,
				0.15239998698234558,
				0.011628714390099049
			],
			"min":[
				0.06522192060947418,
				0,
				-0.6719374656677246
			],
			"type":"VEC3"
		},
		{
			"bufferView":6,
			"componentType":5126,
			"count":7076,
			"type":"VEC3"
		},
		{
			"bufferView":7,
			"componentType":5126,
			"count":7076,
			"type":"VEC2"
		},
		{
			"bufferView":8,
			"componentType":5126,
			"count":7076,
			"type":"VEC2"
		},
		{
			"bufferView":9,
			"componentType":5123,
			"count":14076,
			"type":"SCALAR"
		},
		{
			"bufferView":10,
			"componentType":5126,
			"count":6743,
			"max":[
				2.7929139137268066,
				0.07620000094175339,
				0.011628714390099049
			],
			"min":[
				0.023763025179505348,
				0,
				-0.6719374656677246
			],
			"type":"VEC3"
		},
		{
			"bufferView":11,
			"componentType":5126,
			"count":6743,
			"type":"VEC3"
		},
		{
			"bufferView":12,
			"componentType":5126,
			"count":6743,
			"type":"VEC2"
		},
		{
			"bufferView":13,
			"componentType":5126,
			"count":6743,
			"type":"VEC2"
		},
		{
			"bufferView":14,
			"componentType":5123,
			"count":13356,
			"type":"SCALAR"
		},
		{
			"bufferView":15,
			"componentType":5126,
			"count":7076,
			"max":[
				2.2236125469207764,
				0.15239998698234558,
				0.011628714390099049
			],
			"min":[
				0.06522192060947418,
				0,
				-0.6719374656677246
			],
			"type":"VEC3"
		},
		{
			"bufferView":16,
			"componentType":5126,
			"count":7076,
			"type":"VEC3"
		},
		{
			"bufferView":17,
			"componentType":5126,
			"count":7076,
			"type":"VEC2"
		},
		{
			"bufferView":18,
			"componentType":5126,
			"count":7076,
			"type":"VEC2"
		},
		{
			"bufferView":19,
			"componentType":5126,
			"count":6743,
			"max":[
				2.7929139137268066,
				0.07620000094175339,
				0.011628714390099049
			],
			"min":[
				0.023763025179505348,
				0,
				-0.6719374656677246
			],
			"type":"VEC3"
		},
		{
			"bufferView":20,
			"componentType":5126,
			"count":6743,
			"type":"VEC3"
		},
		{
			"bufferView":21,
			"componentType":5126,
			"count":6743,
			"type":"VEC2"
		},
		{
			"bufferView":22,
			"componentType":5126,
			"count":6743,
			"type":"VEC2"
		},
		{
			"bufferView":23,
			"componentType":5126,
			"count":3624,
			"max":[
				2.2236125469207764,
				0.07620000094175339,
				0.011628714390099049
			],
			"min":[
				0.022751832380890846,
				0,
				-0.6719374656677246
			],
			"type":"VEC3"
		},
		{
			"bufferView":24,
			"componentType":5126,
			"count":3624,
			"type":"VEC3"
		},
		{
			"bufferView":25,
			"componentType":5126,
			"count":3624,
			"type":"VEC2"
		},
		{
			"bufferView":26,
			"componentType":5126,
			"count":3678,
			"max":[
				3.362215042114258,
				0.038100000470876694,
				0.011628714390099049
			],
			"min":[
				0.016684677451848984,
				-0.038100000470876694,
				-0.6719374656677246
			],
			"type":"VEC3"
		},
		{
			"bufferView":27,
			"componentType":5126,
			"count":3678,
			"type":"VEC3"
		},
		{
			"bufferView":28,
			"componentType":5126,
			"count":3678,
			"type":"VEC2"
		},
		{
			"bufferView":29,
			"componentType":5123,
			"count":10812,
			"type":"SCALAR"
		},
		{
			"bufferView":30,
			"componentType":5126,
			"count":3602,
			"max":[
				3.9416284561157227,
				0.038100000470876694,
				0.011628714390099049
			],
			"min":[
				0.047526050359010696,
				-0.038100000470876694,
				-0.6719374656677246
			],
			"type":"VEC3"
		},
		{
			"bufferView":31,
			"componentType":5126,
			"count":3602,
			"type":"VEC3"
		},
		{
			"bufferView":32,
			"componentType":5126,
			"count":3602,
			"type":"VEC2"
		},
		{
			"bufferView":33,
			"componentType":5123,
			"count":10704,
			"type":"SCALAR"
		},
		{
			"bufferView":34,
			"componentType":5126,
			"count":3678,
			"max":[
				3.362215042114258,
				0.038100000470876694,
				0.011628714390099049
			],
			"min":[
				0.016684677451848984,
				-0.038100000470876694,
				-0.6719374656677246
			],
			"type":"VEC3"
		},
		{
			"bufferView":35,
			"componentType":5126,
			"count":3678,
			"type":"VEC3"
		},
		{
			"bufferView":36,
			"componentType":5126,
			"count":3678,
			"type":"VEC2"
		},
		{
			"bufferView":37,
			"componentType":5126,
			"count":3602,
			"max":[
				3.9416284561157227,
				0.038100000470876694,
				0.011628714390099049
			],
			"min":[
				0.047526050359010696,
				-0.038100000470876694,
				-0.6719374656677246
			],
			"type":"VEC3"
		},
		{
			"bufferView":38,
			"componentType":5126,
			"count":3602,
			"type":"VEC3"
		},
		{
			"bufferView":39,
			"componentType":5126,
			"count":3602,
			"type":"VEC2"
		}
	],
	"bufferViews":[
		{
			"buffer":0,
			"byteLength":43488,
			"byteOffset":0,
			"target":34962
		},
		{
			"buffer":0,
			"byteLength":43488,
			"byteOffset":43488,
			"target":34962
		},
		{
			"buffer":0,
			"byteLength":28992,
			"byteOffset":86976,
			"target":34962
		},
		{
			"buffer":0,
			"byteLength":28992,
			"byteOffset":115968,
			"target":34962
		},
		{
			"buffer":0,
			"byteLength":14280,
			"byteOffset":144960,
			"target":34963
		},
		{
			"buffer":0,
			"byteLength":84912,
			"byteOffset":159240,
			"target":34962
		},
		{
			"buffer":0,
			"byteLength":84912,
			"byteOffset":244152,
			"target":34962
		},
		{
			"buffer":0,
			"byteLength":56608,
			"byteOffset":329064,
			"target":34962
		},
		{
			"buffer":0,
			"byteLength":56608,
			"byteOffset":385672,
			"target":34962
		},
		{
			"buffer":0,
			"byteLength":28152,
			"byteOffset":442280,
			"target":34963
		},
		{
			"buffer":0,
			"byteLength":80916,
			"byteOffset":470432,
			"target":34962
		},
		{
			"buffer":0,
			"byteLength":80916,
			"byteOffset":551348,
			"target":34962
		},
		{
			"buffer":0,
			"byteLength":53944,
			"byteOffset":632264,
			"target":34962
		},
		{
			"buffer":0,
			"byteLength":53944,
			"byteOffset":686208,
			"target":34962
		},
		{
			"buffer":0,
			"byteLength":26712,
			"byteOffset":740152,
			"target":34963
		},
		{
			"buffer":0,
			"byteLength":84912,
			"byteOffset":766864,
			"target":34962
		},
		{
			"buffer":0,
			"byteLength":84912,
			"byteOffset":851776,
			"target":34962
		},
		{
			"buffer":0,
			"byteLength":56608,
			"byteOffset":936688,
			"target":34962
		},
		{
			"buffer":0,
			"byteLength":56608,
			"byteOffset":993296,
			"target":34962
		},
		{
			"buffer":0,
			"byteLength":80916,
			"byteOffset":1049904,
			"target":34962
		},
		{
			"buffer":0,
			"byteLength":80916,
			"byteOffset":1130820,
			"target":34962
		},
		{
			"buffer":0,
			"byteLength":53944,
			"byteOffset":1211736,
			"target":34962
		},
		{
			"buffer":0,
			"byteLength":53944,
			"byteOffset":1265680,
			"target":34962
		},
		{
			"buffer":0,
			"byteLength":43488,
			"byteOffset":1319624,
			"target":34962
		},
		{
			"buffer":0,
			"byteLength":43488,
			"byteOffset":1363112,
			"target":34962
		},
		{
			"buffer":0,
			"byteLength":28992,
			"byteOffset":1406600,
			"target":34962
		},
		{
			"buffer":0,
			"byteLength":44136,
			"byteOffset":1435592,
			"target":34962
		},
		{
			"buffer":0,
			"byteLength":44136,
			"byteOffset":1479728,
			"target":34962
		},
		{
			"buffer":0,
			"byteLength":29424,
			"byteOffset":1523864,
			"target":34962
		},
		{
			"buffer":0,
			"byteLength":21624,
			"byteOffset":1553288,
			"target":34963
		},
		{
			"buffer":0,
			"byteLength":43224,
			"byteOffset":1574912,
			"target":34962
		},
		{
			"buffer":0,
			"byteLength":43224,
			"byteOffset":1618136,
			"target":34962
		},
		{
			"buffer":0,
			"byteLength":28816,
			"byteOffset":1661360,
			"target":34962
		},
		{
			"buffer":0,
			"byteLength":21408,
			"byteOffset":1690176,
			"target":34963
		},
		{
			"buffer":0,
			"byteLength":44136,
			"byteOffset":1711584,
			"target":34962
		},
		{
			"buffer":0,
			"byteLength":44136,
			"byteOffset":1755720,
			"target":34962
		},
		{
			"buffer":0,
			"byteLength":29424,
			"byteOffset":1799856,
			"target":34962
		},
		{
			"buffer":0,
			"byteLength":43224,
			"byteOffset":1829280,
			"target":34962
		},
		{
			"buffer":0,
			"byteLength":43224,
			"byteOffset":1872504,
			"target":34962
		},
		{
			"buffer":0,
			"byteLength":28816,
			"byteOffset":1915728,
			"target":34962
		}
	],
	"samplers":[
		{
			"magFilter":9729,
			"minFilter":9987
		}
	],
	"buffers":[
		{
			"byteLength":1944544,
			"uri":"newborn.bin"
		}
	]
}
